<svg version="1.1" id="Capa_1" xmlns="http://www.w3.org/2000/svg" x="0" y="0" viewBox="0 0 221.6 46.8" style="enable-background:new 0 0 221.6 46.8" xml:space="preserve"><style>.st0{fill:#00be78}.st1{fill:#fff}</style><path id="XMLID_12_" class="st0" d="M2.9 2h40v40h-40z"/><path id="XMLID_11_" class="st1" d="m29 27.4-6.1 1.5 5.3-3.8 8.6-6.2H26.2L22.9 8.8l-3.3 10.1H9l8.6 6.2-3.3 10.1 8.6-6.3 8.6 6.3-3.3-10.1z"/><path id="XMLID_10_" class="st0" d="M45.9 2h40v40h-40z"/><path id="XMLID_9_" class="st1" d="m71.9 27.4-6 1.5 5.3-3.8 8.6-6.2H69.1L65.9 8.8l-3.3 10.1H52l8.6 6.2-3.3 10.1 8.6-6.3 8.5 6.3-3.2-10.1z"/><path id="XMLID_8_" class="st0" d="M88.8 2h40v40h-40z"/><path id="XMLID_7_" class="st1" d="m114.9 27.4-6.1 1.5 5.3-3.8 8.6-6.2h-10.6l-3.3-10.1-3.3 10.1H94.9l8.6 6.2-3.3 10.1 8.6-6.3 8.6 6.3-3.3-10.1z"/><path id="XMLID_6_" class="st0" d="M131.8 2h40v40h-40z"/><path id="XMLID_5_" class="st1" d="m157.8 27.4-6 1.5 5.3-3.8 8.5-6.2H155l-3.2-10.1-3.3 10.1h-10.6l8.5 6.2-3.2 10.1 8.5-6.3 8.6 6.3-3.2-10.1z"/><path id="XMLID_4_" class="st0" d="M174.7 2h40v40h-40z"/><path id="XMLID_3_" class="st1" d="m200.7 27.4-6 1.5 5.3-3.8 8.6-6.2H198l-3.3-10.1-3.3 10.1h-10.6l8.6 6.2-3.3 10.1 8.6-6.3 8.6 6.3-3.3-10.1z"/><path id="XMLID_2_" style="fill:#d7d7d7" d="M194.8 2v6.9l3.2 10h10.6l-8.6 6.2 3.3 10.1-8.5-6.2v13h19.9V2z"/></svg>
