<?xml version="1.0" encoding="utf-8"?>
<!-- Generator: Adobe Illustrator 23.0.1, SVG Export Plug-In . SVG Version: 6.00 Build 0)  -->
<svg version="1.1" id="Layer_1" xmlns="http://www.w3.org/2000/svg" xmlns:xlink="http://www.w3.org/1999/xlink"
	viewBox="300 820 1400 370">
	<style type="text/css">
		.st0 {
			fill: #42210B;
		}

		.st1 {
			fill: #230F04;
		}

		.st2 {
			fill: #13AA3F;
		}

		.st3 {
			fill: #009245;
		}

		.st4 {
			fill: #FFF8BA;
		}

		.st5 {
			fill: #F9EF98;
		}

		.st6 {
			fill: #DFD274;
		}

		.st7 {
			fill: #FFFFFF;
		}
	</style>
	<g>
		<path class="st0" d="M506.95,868.19c-2.52-0.08-5.11,0.81-7.27,3.03c-2.63,2.7-3.54,6.62-5.62,9.76c-2.94,4.46-8.09,7.1-13.33,8.15
		c-6.31,1.27-12.96,0.62-19.35,0.62c-4.46,0-8.93,0-13.39,0c-7.58,0-15.16,0-22.75,0c0,0-23.18,0-23.19,0
		c-9.48,0-18.95-0.18-28.43-0.13c-9.34,0.05-19.8-0.61-28.98,1.29c-13.71,2.85-25.44,14.41-29.97,27.42
		c-2.37,6.81,2.73,13.92,9.94,13.92c4.44,0,8.44-2.79,9.89-6.99c3.3-9.57,11.76-14.16,21.44-14.15c9.73,0.01,19.45,0.03,29.18,0.04
		c4.83,0.01,9.78-0.31,14.59,0.02c2.49,0.17,1.92,0.04,2.34,1.7c1.05,4.17,0,9.99,0,14.26c0,18.05,0,36.11,0,54.16
		c0,18.15,0,36.3,0,54.45c0,5.52,0,11.04,0,16.56c0,3.27,1.11,6.02,3.34,8.25c2.23,2.23,4.98,3.34,8.25,3.34
		c3.27,0,6.02-1.12,8.25-3.34c2.23-2.23,3.34-4.98,3.34-8.25c0,0,0-141.14,0-141.14c0,0.32,50.97-0.13,55.26-0.71
		c16.44-2.22,30.75-12.28,36.34-28.25C519.38,874.97,513.37,868.4,506.95,868.19z" />
		<path class="st0" d="M580.44,1008.04c1.93-1.86,2.89-4.2,2.89-7.03c0-11.74-2.19-22.11-6.57-31.1
		c-4.39-8.99-10.74-16.06-19.07-21.18c-8.32-5.13-18.28-7.7-29.87-7.7c-11.75,0-22.16,2.65-31.22,7.92
		c-9.07,5.28-16.17,12.56-21.29,21.85c-5.13,9.29-7.7,20.03-7.7,32.22c0,12.04,2.71,22.71,8.14,32s12.93,16.57,22.52,21.85
		c9.59,5.27,20.55,7.91,32.89,7.91c6.84,0,14.01-1.26,21.52-3.79c7.5-2.52,13.78-5.8,18.84-9.81c2.52-1.93,3.71-4.24,3.56-6.91
		c-0.14-2.68-1.48-5.13-4.01-7.36c-1.93-1.63-4.2-2.41-6.8-2.34c-2.6,0.08-5.02,0.93-7.25,2.56c-2.97,2.23-6.87,4.21-11.7,5.91
		c-4.83,1.71-9.55,2.57-14.16,2.57c-8.47,0-15.98-1.86-22.52-5.58c-6.54-3.71-11.67-8.77-15.38-15.16
		c-2.49-4.28-4.15-8.97-4.97-14.05h84.79C576.05,1010.82,578.5,1009.9,580.44,1008.04z M488.54,992.99
		c0.76-4.26,2.04-8.24,3.82-11.93c3.13-6.47,7.7-11.56,13.72-15.28c6.02-3.71,13.26-5.57,21.74-5.57c7.43,0,13.74,1.71,18.95,5.13
		c5.2,3.42,9.21,8.06,12.04,13.93c2.01,4.18,3.34,8.75,3.99,13.72H488.54z" />
		<path class="st0" d="M692.03,944.94c-4.39-2.9-11.04-4.35-19.96-4.35s-17.09,2.08-24.52,6.24c-5.01,2.81-9.32,6.27-12.94,10.38
		c-1.76,2-3.36,4.15-4.79,6.46c-4.39,7.06-6.58,15.05-6.58,23.97h11.37c0-6.84,2.2-12.49,6.58-16.95
		c4.39-4.46,10.37-7.51,17.95-9.14c7.58-1.64,16.13-1.49,25.64,0.44c1.93,0.45,3.72,0.53,5.35,0.23c1.64-0.3,3.09-1.01,4.35-2.12
		c1.26-1.12,2.12-2.71,2.57-4.8C698.08,951.29,696.41,947.83,692.03,944.94z M631.83,944.71c-1.86-1.85-4.65-2.78-8.36-2.78
		c-3.57,0-6.32,0.97-8.25,2.9c-1.94,1.93-2.9,4.68-2.9,8.24v99.67c0,3.72,0.96,6.51,2.9,8.36c1.93,1.86,4.68,2.79,8.25,2.79
		c3.71,0,6.5-0.97,8.36-2.9c1.85-1.93,2.78-4.68,2.78-8.25v-99.67C634.61,949.36,633.68,946.57,631.83,944.71z" />
		<path class="st0"
			d="M800.39,944.94c-4.39-2.9-11.04-4.35-19.95-4.35c-8.92,0-17.1,2.08-24.53,6.24
		c-5.01,2.81-9.32,6.27-12.93,10.38c-1.76,2-3.36,4.15-4.8,6.46c-4.38,7.06-6.57,15.05-6.57,23.97h11.37
		c0-6.84,2.19-12.49,6.57-16.95c4.39-4.46,10.37-7.51,17.95-9.14c7.58-1.64,16.13-1.49,25.64,0.44c1.93,0.45,3.72,0.53,5.36,0.23
		c1.63-0.3,3.08-1.01,4.34-2.12c1.27-1.12,2.12-2.71,2.57-4.8C806.45,951.29,804.77,947.83,800.39,944.94z M740.19,944.71
		c-1.86-1.85-4.65-2.78-8.36-2.78c-3.57,0-6.32,0.97-8.25,2.9c-1.94,1.93-2.9,4.68-2.9,8.24v99.67c0,3.72,0.96,6.51,2.9,8.36
		c1.93,1.86,4.68,2.79,8.25,2.79c3.71,0,6.5-0.97,8.36-2.9s2.79-4.68,2.79-8.25v-99.67C742.98,949.36,742.05,946.57,740.19,944.71z" />
		<path class="st0" d="M1103.63,944.94c-4.39-2.9-11.04-4.35-19.96-4.35c-8.92,0-17.1,2.08-24.53,6.24c-5,2.81-9.31,6.27-12.93,10.38
		c-1.76,2-3.36,4.15-4.79,6.46c-4.39,7.06-6.58,15.05-6.58,23.97h11.37c0-6.84,2.19-12.49,6.58-16.95
		c4.38-4.46,10.37-7.51,17.95-9.14c7.58-1.64,16.13-1.49,25.64,0.44c1.93,0.45,3.71,0.53,5.35,0.23c1.63-0.3,3.08-1.01,4.35-2.12
		c1.26-1.12,2.12-2.71,2.56-4.8C1109.68,951.29,1108.01,947.83,1103.63,944.94z M1043.42,944.71c-1.86-1.85-4.64-2.78-8.36-2.78
		c-3.56,0-6.32,0.97-8.25,2.9c-1.93,1.93-2.9,4.68-2.9,8.24v99.67c0,3.72,0.97,6.51,2.9,8.36c1.93,1.86,4.69,2.79,8.25,2.79
		c3.72,0,6.5-0.97,8.36-2.9c1.86-1.93,2.79-4.68,2.79-8.25v-99.67C1046.21,949.36,1045.28,946.57,1043.42,944.71z" />
		<path class="st0" d="M1232.06,970.8c-5.28-9.29-12.53-16.57-21.74-21.85c-9.22-5.27-19.77-7.92-31.67-7.92
		c-12.04,0-22.67,2.65-31.88,7.92c-9.22,5.28-16.47,12.56-21.74,21.85c-5.28,9.29-7.91,20.03-7.91,32.22c0,12.04,2.63,22.71,7.91,32
		c5.27,9.29,12.52,16.57,21.74,21.85c9.21,5.27,19.84,7.91,31.88,7.91c12.04,0,22.67-2.64,31.89-7.91
		c9.21-5.28,16.42-12.56,21.63-21.85c5.2-9.29,7.8-19.96,7.8-32C1239.97,990.83,1237.33,980.09,1232.06,970.8z M1213.1,1024.65
		c-3.34,6.24-7.99,11.15-13.93,14.71c-5.95,3.57-12.79,5.36-20.52,5.36c-7.73,0-14.57-1.79-20.51-5.36
		c-5.95-3.56-10.63-8.47-14.05-14.71c-3.42-6.25-5.12-13.45-5.12-21.63c0-8.17,1.7-15.42,5.12-21.74
		c3.42-6.32,8.1-11.26,14.05-14.83c5.94-3.57,12.78-5.35,20.51-5.35c7.73,0,14.57,1.78,20.52,5.35c5.94,3.57,10.59,8.51,13.93,14.83
		c3.35,6.32,5.02,13.57,5.02,21.74C1218.12,1011.2,1216.45,1018.4,1213.1,1024.65z" />
		<path class="st0" d="M1382.67,944.83c-2.08-2.09-4.83-3.13-8.25-3.13c-3.27,0-5.99,1.04-8.14,3.13c-2.16,2.08-3.23,4.83-3.23,8.24
		v99.45c0,3.27,1.07,5.98,3.23,8.14c2.15,2.15,4.87,3.23,8.14,3.23c3.42,0,6.17-1.08,8.25-3.23c2.08-2.16,3.12-4.87,3.12-8.14
		v-99.45C1385.79,949.66,1384.75,946.91,1382.67,944.83z M1363.05,1015.95c0,5.35-1.49,10.19-4.46,14.5
		c-2.98,4.31-6.95,7.73-11.93,10.25c-4.98,2.53-10.67,3.79-17.06,3.79c-6.69,0-12.71-1.3-18.06-3.9c-5.35-2.6-9.59-6.61-12.71-12.04
		c-3.12-5.42-4.68-12.3-4.68-20.62v-54.86c0-3.26-1.08-5.98-3.23-8.13c-2.16-2.16-4.87-3.24-8.14-3.24s-5.99,1.08-8.14,3.24
		c-2.16,2.15-3.23,4.87-3.23,8.13v54.86c0,12.33,2.34,22.74,7.02,31.21c4.68,8.47,11.07,14.9,19.18,19.29
		c8.1,4.38,17.28,6.58,27.53,6.58c9.96,0,18.84-2.16,26.65-6.47c4.23-2.34,7.99-5.14,11.26-8.41c2.75-2.73,5.16-5.81,7.24-9.21
		c4.54-7.43,6.8-15.75,6.8-24.97H1363.05z" />
		<path class="st0" d="M1528.04,998.34l-7.35,19.62v31.66c0,9.66-1.79,17.84-5.36,24.53c-3.56,6.69-8.36,11.74-14.38,15.16
		c-6.02,3.42-12.59,5.13-19.73,5.13c-7.73,0-14.64-1.42-20.74-4.24c-6.09-2.82-11.14-6.77-15.16-11.82
		c-1.78-2.38-4.12-3.86-7.02-4.46c-2.9-0.59-5.69,0-8.36,1.79c-2.38,1.63-3.83,3.79-4.35,6.46c-0.52,2.68,0.18,5.28,2.12,7.81
		c6.39,8.02,14.19,14.12,23.41,18.28c9.21,4.16,19.1,6.24,29.65,6.24c12.19,0,22.93-2.82,32.22-8.47
		c9.29-5.65,16.54-13.26,21.74-22.85c5.2-9.59,7.81-20.26,7.81-32v-48.16L1528.04,998.34z M1534.62,970.8
		c-5.28-9.29-12.52-16.57-21.74-21.85c-9.22-5.27-19.77-7.92-31.66-7.92c-12.04,0-22.67,2.65-31.88,7.92
		c-9.22,5.28-16.47,12.56-21.74,21.85c-5.28,9.29-7.92,20.03-7.92,32.22c0,12.04,2.45,22.71,7.36,32
		c4.9,9.29,11.63,16.57,20.18,21.85c8.54,5.27,18.39,7.91,29.54,7.91c10.26,0,19.32-2.64,27.2-7.91
		c6.84-4.58,12.42-10.67,16.73-18.27c0.66-1.16,1.29-2.35,1.89-3.58c4.53-9.29,6.8-19.96,6.8-32h13.16
		C1542.54,990.83,1539.9,980.09,1534.62,970.8z M1515.67,1024.65c-3.35,6.24-7.99,11.15-13.94,14.71
		c-5.94,3.57-12.78,5.36-20.51,5.36s-14.57-1.79-20.51-5.36c-5.95-3.56-10.63-8.47-14.05-14.71c-3.42-6.25-5.13-13.45-5.13-21.63
		c0-8.17,1.71-15.42,5.13-21.74c3.42-6.32,8.1-11.26,14.05-14.83c5.94-3.57,12.78-5.35,20.51-5.35s14.57,1.78,20.51,5.35
		c5.95,3.57,10.59,8.51,13.94,14.83c3.34,6.32,5.02,13.57,5.02,21.74C1520.69,1011.2,1519.01,1018.4,1515.67,1024.65z" />
		<path class="st0" d="M1683,1008.04c1.93-1.86,2.9-4.2,2.9-7.03c0-11.74-2.19-22.11-6.57-31.1c-4.39-8.99-10.75-16.06-19.07-21.18
		c-8.33-5.13-18.28-7.7-29.88-7.7c-11.74,0-22.15,2.65-31.21,7.92c-9.07,5.28-16.17,12.56-21.3,21.85
		c-5.12,9.29-7.69,20.03-7.69,32.22c0,12.04,2.71,22.71,8.14,32c5.42,9.29,12.93,16.57,22.52,21.85c9.59,5.27,20.55,7.91,32.89,7.91
		c6.83,0,14.01-1.26,21.51-3.79c7.51-2.52,13.79-5.8,18.85-9.81c2.52-1.93,3.71-4.24,3.56-6.91c-0.15-2.68-1.49-5.13-4.01-7.36
		c-1.93-1.63-4.2-2.41-6.8-2.34c-2.6,0.08-5.02,0.93-7.25,2.56c-2.97,2.23-6.87,4.21-11.7,5.91c-4.84,1.71-9.56,2.57-14.16,2.57
		c-8.48,0-15.98-1.86-22.52-5.58c-6.54-3.71-11.67-8.77-15.39-15.16c-2.49-4.28-4.14-8.97-4.96-14.05h84.79
		C1678.62,1010.82,1681.07,1009.9,1683,1008.04z M1591.11,992.99c0.76-4.26,2.04-8.24,3.82-11.93c3.12-6.47,7.69-11.56,13.71-15.28
		c6.02-3.71,13.27-5.57,21.74-5.57c7.43,0,13.75,1.71,18.96,5.13c5.2,3.42,9.21,8.06,12.04,13.93c2.01,4.18,3.34,8.75,3.99,13.72
		H1591.11z" />
		<g>
			<path class="st2" d="M416.49,895.08c0,0,2.22-33.72,28.63-47.46C445.12,847.62,450,888.41,416.49,895.08z" />
			<path class="st3" d="M420.1,891c0.57-3.31,1.66-8.22,3.71-13.58c4.16-10.86,10.37-19.11,18.5-24.59
			c0.01,3.84-0.33,9.53-1.93,15.39C437.17,880.01,430.35,887.65,420.1,891z" />
			<path class="st2" d="M407.91,893.87c0,0-14.97-30.29-44.63-32.87C363.28,861,374.4,900.55,407.91,893.87z" />
			<path class="st3"
				d="M400.49,891.58c-10.4,0-19.28-5.17-26.41-15.37c-2.92-4.18-4.94-8.41-6.21-11.47
			c18.71,3.84,30.55,19.48,35.14,26.74C402.16,891.55,401.31,891.58,400.49,891.58C400.49,891.58,400.49,891.58,400.49,891.58z" />
			<g>
				<path class="st4"
					d="M414.01,905.02c0,0,3.58-38.48,41.02-25.49C455.03,879.53,447.47,914.5,414.01,905.02z" />
				<path class="st4" d="M413.53,905.81c0,0,20.39-7.25,27.4,5.1c7.01,12.35,6.53,22.62,6.53,22.62s-5.82,0.4-13.94,1.75
				C425.4,936.64,407.08,927.24,413.53,905.81z" />
				<path class="st4"
					d="M411.35,905.23c0,0-9.56-37.44-44.51-18.76C366.84,886.47,379.79,919.82,411.35,905.23z" />
				<path class="st4" d="M411.95,905.94c0,0-21.28-3.97-26.27,9.32c-4.99,13.29-2.91,23.37-2.91,23.37s5.81-0.52,14.04-0.45
				C405.04,938.24,421.67,926.1,411.95,905.94z" />
				<path class="st4"
					d="M406.6,854.12c0,0,27.45,26.65,6.32,54.03C412.92,908.15,380.31,887.73,406.6,854.12z" />
			</g>
			<path class="st5" d="M386.76,933.97c-0.09-3.74,0.33-9.94,3.04-17.16c0.72-1.93,1.98-3.41,3.84-4.54
			c1.57-0.95,2.38-2.77,2.05-4.57c-0.33-1.8-1.75-3.21-3.55-3.53c-10.27-1.84-16.57-10.61-19.41-15.67
			c4.37-1.9,8.44-2.85,12.13-2.85c3.5,0,6.74,0.88,9.63,2.6c0.7,0.41,1.48,0.62,2.25,0.62c0.87,0,1.73-0.26,2.48-0.77
			c1.42-0.97,2.14-2.67,1.86-4.36c-1.19-7.13,0.78-14.68,5.83-22.52c3.93,5.09,9.82,14.6,9.57,25.5c-0.04,1.92,1.16,3.65,2.98,4.27
			c0.47,0.16,0.94,0.24,1.42,0.24c1.37,0,2.7-0.64,3.55-1.8c4.04-5.5,9.4-8.17,16.4-8.17c2.67,0,5.57,0.4,8.68,1.2
			c-2.03,5.45-6.91,15.12-16.7,18.52c-1.73,0.6-2.91,2.21-2.96,4.04c-0.05,1.83,1.04,3.5,2.74,4.19c2.02,0.82,3.49,2.09,4.51,3.88
			c3.81,6.71,5.19,12.76,5.69,16.47c-2.52,0.28-5.97,0.72-9.99,1.39c-0.27,0.04-0.58,0.07-0.92,0.07c0,0,0,0,0,0
			c-3.89,0-10.74-2.93-13.78-9.43c-0.73-1.56-2.29-2.54-3.99-2.54c-0.12,0-0.23,0-0.35,0.01c-1.83,0.14-3.38,1.41-3.88,3.17
			c-2.18,7.58-9.63,11.55-13.02,11.55c-0.55,0-1.05-0.01-1.54-0.01C391.91,933.77,388.97,933.86,386.76,933.97z" />
			<g>
				<path class="st4" d="M412.04,909.46c-1.41,0-2.85-0.71-3.84-1.89c-0.56-0.67-0.94-1.42-1.2-2.12c-0.22,0.06-0.42,0.16-0.57,0.3
				c-0.38,0.34-0.86,0.5-1.34,0.5c-0.49,0-0.98-0.18-1.36-0.53c-1.62-1.47-2.39-3.8-1.96-5.94c0.39-1.94,1.59-3.12,2.71-4.01
				c0.15-0.12,0.32-0.31,0.51-0.51c0.6-0.65,1.51-1.64,3.11-1.83c0.18-0.02,0.36-0.03,0.54-0.03c1.36,0,2.69,0.62,3.55,1.66
				c0.35,0.42,0.58,0.86,0.77,1.21c0.08,0.14,0.18,0.34,0.26,0.46c0.36-0.28,0.8-0.41,1.23-0.41c0.56,0,1.12,0.23,1.52,0.68
				c0.58,0.66,1.31,1.48,1.7,2.6c0.56,1.6,0.19,3.31-0.95,4.34c-0.25,0.23-0.51,0.4-0.74,0.54c0.04,0.15,0.09,0.32,0.11,0.5
				c0.16,0.96-0.09,1.95-0.69,2.77c-0.65,0.89-1.63,1.49-2.69,1.65C412.47,909.44,412.26,909.46,412.04,909.46z" />
				<path class="st6" d="M408.33,895.44c0.84-0.1,1.73,0.25,2.27,0.91c0.51,0.62,0.72,1.46,1.32,1.99c0.68,0.6,1.82,0.6,2.5,0.01
				c0.52,0.58,1.05,1.19,1.3,1.93c0.26,0.74,0.18,1.65-0.4,2.17c-0.5,0.46-1.34,0.62-1.55,1.27c-0.16,0.52,0.2,1.05,0.29,1.59
				c0.16,0.99-0.7,1.95-1.69,2.1c-0.99,0.15-1.99-0.37-2.63-1.14c-0.64-0.76-0.98-1.74-1.21-2.71c-1.16-0.41-2.54-0.15-3.46,0.66
				c-1.1-1-1.62-2.59-1.33-4.04c0.25-1.26,1.02-2.06,1.98-2.83C406.6,896.66,407.08,895.59,408.33,895.44z" />
			</g>
		</g>
		<g>
			<path class="st0" d="M981.02,1041.53c-8.33-8.31-17.84-14.22-29.33-15.88l-3.46,17.28c1.58,0.02,3.15,0.17,4.72,0.48
			c12.76,2.4,21.81,13.33,31.37,22.12c1.48,1.37,3.02,2.69,4.57,3.98l3.19-15.9C988.6,1049.66,985.04,1045.54,981.02,1041.53z
			 M1102.84,1085.24c-14.31,0.52-28.68,0.54-42.8-0.49l-1.75,8.71c7.11,0.49,14.18,0.68,21.24,0.73c7.87,0.06,15.73,0.05,23.55-0.14
			l1.11-0.03l1.78-8.9C1104.93,1085.17,1103.89,1085.2,1102.84,1085.24z M1220.49,1082.14c-7.96-0.69-15.9-1.03-23.82-1.14
			c-5.25-0.07-10.48-0.02-15.69,0.11l-2.35,11.67c5.9,0.1,11.77,0.3,17.62,0.64c9.31,0.52,18.57,1.35,27.73,2.65l2.66-13.29
			C1224.6,1082.54,1222.54,1082.33,1220.49,1082.14z M1334.24,1114.46c-12.27-4.49-24.53-9.28-37-13.78l-2.9,14.51
			c11.55,4.21,23.15,8.67,34.87,12.97c2.64,0.97,5.29,1.92,7.95,2.88l2.91-14.48C1338.12,1115.87,1336.18,1115.17,1334.24,1114.46z
			 M1423.07,1133.37c-1.53-0.05-3.08-0.12-4.61-0.2l-3.42,17c2.32,0.28,4.63,0.52,6.95,0.73c8,0.79,16.03,1.23,24.09,1.41
			c7.37,0.18,14.75-0.03,22.13-0.34l4.4-21.89C1456.3,1132.66,1439.64,1133.71,1423.07,1133.37z M1614.49,1076.86
			c-7.67-7.86-20.25-8.04-28.12-0.37c-7.71,7.5-16.23,14.31-25.38,20.36l-7.82,39.05c19.96-7.01,39.36-16.38,57.64-28.33l0.4-0.27
			c1.02-0.66,1.98-1.45,2.9-2.33C1621.98,1097.3,1622.14,1084.73,1614.49,1076.86z M1487.26,1127.32l-4.75,23.72
			c3.98-0.37,7.96-0.81,11.96-1.31l6.06-0.84l6.03-0.99c2.02-0.31,4.03-0.7,6.04-1.08c2.01-0.41,4.03-0.73,6.03-1.2
			c6.52-1.4,13.02-3.03,19.47-4.9l6.89-34.35c-10.54,5.62-21.66,10.36-33.14,14.19C1503.83,1123.25,1495.61,1125.5,1487.26,1127.32z
			 M1400.43,1131.73c-7.5-0.93-14.96-2.21-22.37-3.77c-7.4-1.65-14.64-3.7-21.99-5.97c-0.93-0.3-1.87-0.6-2.8-0.92l-2.91,14.54
			c7.91,2.64,15.95,5.1,24.19,7.19c8.85,2.21,17.78,4.04,26.79,5.49l3.23-16.14C1403.18,1132.03,1401.8,1131.88,1400.43,1131.73z
			 M1267.6,1090.98c-7.68-2.11-15.43-4.08-23.32-5.56c-1.3-0.25-2.61-0.48-3.93-0.71l-2.74,13.66c1.31,0.26,2.61,0.53,3.91,0.82
			c13.37,2.85,26.53,6.84,39.66,11.34l2.89-14.42C1278.63,1094.29,1273.17,1092.54,1267.6,1090.98z M1149.49,1082.58
			c-9.79,0.6-19.55,1.28-29.28,1.83l-1.85,9.25l31.55-0.82c4.88-0.08,9.77-0.15,14.65-0.15l2.21-11.08
			C1161,1081.88,1155.23,1082.21,1149.49,1082.58z M1034.21,1080.73c-7.21-2-14.23-4.47-20.53-8.13c-1.61-0.85-3.09-1.88-4.62-2.82
			l-2.19-1.57l-1.09-0.8l-1.01-0.8c-0.34-0.28-0.67-0.56-1.01-0.87l-2.53,12.57c4.74,2.87,9.7,5.35,14.88,7.36
			c8.98,3.49,18.67,5.4,28.34,6.54l1.81-9.02C1042.19,1082.57,1038.15,1081.75,1034.21,1080.73z M916.91,1031.31
			c-12.23,5.1-23.81,12.65-36.98,14.08c-10.43,1.12-21.24-1.9-29.57-8.25c-8.35-6.37-14.1-16.01-15.77-26.35
			c27.12,0.03,54.25,0.05,81.39,0.09c3.81,0,8.12-0.19,10.71-3.02c1.75-1.91,2.28-4.62,2.54-7.19c1.88-17.92-6.13-36.48-20.19-47.73
			c-14.06-11.27-33.67-15.07-51.04-10.29c-17.38,4.77-32.17,17.88-39.42,34.37c-9.43,21.47-5.5,48.18,9.7,66.02
			c15.22,17.85,40.96,25.96,63.65,20.04c13.13-3.42,24.75-10.95,37.34-16.02c1.43-0.58,2.89-1.12,4.36-1.61l3.98-19.86
			C930.5,1026.46,923.53,1028.54,916.91,1031.31z M838.64,981.05c3.11-6.45,7.68-11.55,13.7-15.26c6.02-3.72,13.27-5.58,21.74-5.58
			c7.43,0,13.75,1.71,18.95,5.13c5.21,3.41,9.21,8.06,12.04,13.93c2.01,4.18,3.33,8.76,3.98,13.72h-74.22
			C835.6,988.73,836.85,984.75,838.64,981.05z" />
		</g>
	</g>
</svg>