<svg xmlns="http://www.w3.org/2000/svg" viewBox="98.72 68.91 203.34 306.81"><path d="M231.193 69.339c-17.871 2.819-26.541 12.307-26.555 29.064-.013 14.248 5.138 23.517 19.004 34.199 19.549 15.059 29.66 25.291 37.585 38.036 13.037 20.965 15.828 45.133 8.26 71.521-1.393 4.855-.733 4.393-5.359 3.746-25.643-3.588-42-1.988-56.62 5.541-15.944 8.21-31.031 11.505-41.177 8.993-4.963-1.229-6.532-2.297-10.878-7.405-6.089-7.156-15.33-15.981-21.47-20.502-1.51-1.111-3.297-2.564-3.972-3.229-3.418-3.366-5.722-2.662-5.736 1.751l-.007 2.013-1.629.959c-4.489 2.641-8.001 5.919-8.747 8.164-.879 2.647-6.214 6.288-10.684 7.292-1.668.375-1.919.718-1.925 2.635-.007 2.089.294 3.339.967 4.011 4.564 4.562 5.893 5.131 12.9 5.53 7.928.451 8.605.864 11.638 7.103 4.833 9.943 14.195 33.818 15.273 38.95 1.775 8.455.328 20.219-3.146 25.562-.726 1.117-3.229 5.84-5.562 10.497-9.031 18.025-13.405 23.355-19.922 24.279-5.937.842-9.815 2.575-13.511 6.038-.659.617-1.198 1.237-1.198 1.377 0 .14 5.938.255 13.195.255h13.195l3.636-3.914c8.983-9.67 21.534-22.908 21.628-22.813.368.368 1.125 7.424 1.153 10.752.058 6.838-.805 8.32-5.301 9.104-4.835.843-9.083 3.102-11.064 5.884l-.703.987h13.291c10.359 0 13.316-.088 13.404-.4.063-.219.786-6.653 1.606-14.297 1.947-18.137 3.204-27.993 3.994-31.326.679-2.859 1.288-8.614 1.292-12.204.002-1.186.111-2.154.243-2.15.132.004 1.461.367 2.955.807 12.589 3.707 27.473 2.759 39.972-2.546.43-.183.65.352 1.344 3.263 2.268 9.524 7.812 25.528 11.256 32.495 1.945 3.934 2.686 5.014 6.573 9.585 5.672 6.668 3.863 9.584-6.11 9.85-7.691.204-11.844 1.596-13.932 4.668-1.638 2.41-2.691 2.255 15.29 2.25l16.054-.004 2.107-3.43c4.306-7.011 4.407-9.634.669-17.328l-1.785-3.674-.122-5.692c-.123-5.726.109-9.499 1.119-18.19.472-4.069 1.047-6.256 1.047-3.985 0 2.611 3.98 11.341 7.012 15.382 6.926 9.23 16.05 16.115 30.8 23.242 5.166 2.496 5.194 2.517 4.644 3.408-1.095 1.772-4.836 2.835-10.986 3.119-8.061.372-12.095 2.311-13.395 6.438l-.226.719h29.619l2.487-3.345c9.658-12.984 9.814-18.706.63-23.17-13.913-6.761-21.751-31.066-14.53-45.051 4.692-9.084 5.239-22.303 1.503-36.293l-.759-2.843 1.353-1.598c20.866-24.644 16.763-83.867-7.945-114.697-5.443-6.792-8.669-9.587-29.298-25.384-21.477-16.448-26.305-24.49-18.845-31.391 8.23-7.613 22.239-4.887 28.247 5.497.661 1.142 1.937 3.946 2.835 6.23 7.644 19.443 15.784 22.214 17.606 5.993 2.564-22.821-20.74-44.042-44.287-40.328" fill="#C0714A" fill-rule="evenodd"></path></svg>
