<?xml version="1.0" encoding="utf-8"?>
<!-- Generator: Adobe Illustrator 19.0.0, SVG Export Plug-In . SVG Version: 6.00 Build 0)  -->
<svg version="1.1" id="Capa_1" xmlns="http://www.w3.org/2000/svg" xmlns:xlink="http://www.w3.org/1999/xlink" x="0px" y="0px"
	 viewBox="0 0 221.6 46.8" style="enable-background:new 0 0 221.6 46.8;" xml:space="preserve">
<style type="text/css">
	.st0{fill:#00BE78;}
	.st1{fill:#FFFFFF;}
	.st2{fill:#D7D7D7;}
</style>
<rect id="XMLID_12_" x="2.9" y="2" class="st0" width="40" height="40"/>
<polygon id="XMLID_11_" class="st1" points="29,27.4 22.9,28.9 28.2,25.1 36.8,18.9 26.2,18.9 22.9,8.8 19.6,18.9 9,18.9 17.6,25.1 
	14.3,35.2 22.9,28.9 31.5,35.2 28.2,25.1 "/>
<rect id="XMLID_10_" x="45.9" y="2" class="st0" width="40" height="40"/>
<polygon id="XMLID_9_" class="st1" points="71.9,27.4 65.9,28.9 71.2,25.1 79.8,18.9 69.1,18.9 65.9,8.8 62.6,18.9 52,18.9 
	60.6,25.1 57.3,35.2 65.9,28.9 74.4,35.2 71.2,25.1 "/>
<rect id="XMLID_8_" x="88.8" y="2" class="st0" width="40" height="40"/>
<polygon id="XMLID_7_" class="st1" points="114.9,27.4 108.8,28.9 114.1,25.1 122.7,18.9 112.1,18.9 108.8,8.8 105.5,18.9 
	94.9,18.9 103.5,25.1 100.2,35.2 108.8,28.9 117.4,35.2 114.1,25.1 "/>
<rect id="XMLID_6_" x="131.8" y="2" class="st0" width="40" height="40"/>
<polygon id="XMLID_5_" class="st1" points="157.8,27.4 151.8,28.9 157.1,25.1 165.6,18.9 155,18.9 151.8,8.8 148.5,18.9 137.9,18.9 
	146.4,25.1 143.2,35.2 151.7,28.9 160.3,35.2 157.1,25.1 "/>
<rect id="XMLID_4_" x="174.7" y="2" class="st0" width="40" height="40"/>
<polygon id="XMLID_3_" class="st1" points="200.7,27.4 194.7,28.9 200,25.1 208.6,18.9 198,18.9 194.7,8.8 191.4,18.9 180.8,18.9 
	189.4,25.1 186.1,35.2 194.7,28.9 203.3,35.2 200,25.1 "/>
<polygon id="XMLID_2_" class="st2" points="194.8,2 194.8,8.9 198,18.9 208.6,18.9 200,25.1 203.3,35.2 194.8,29 194.8,42 214.7,42 
	214.7,2 "/>
<g id="XMLID_25_">
</g>
<g id="XMLID_26_">
</g>
<g id="XMLID_27_">
</g>
<g id="XMLID_28_">
</g>
<g id="XMLID_29_">
</g>
</svg>
