<svg xmlns="http://www.w3.org/2000/svg" version="1.0" fill="white" viewBox="31 29 363 223.1"><path d="M213 46.2c-.1 15.9-.2 17-1.5 13.5-2.7-7.8-8.2-11.4-21.7-14.1-12.6-2.6-34.8-1.4-34.8 1.8 0 .6 1.5 4.1 3.3 7.7 8.8 17.4 24.1 30.9 35.2 30.9 7.8 0 16.7-6.3 18.1-12.8.3-1.5.7-3.2.9-3.7.2-.6.4 39.6.4 89.2l.1 90.3h38V29h-38v17.2zM100.7 76.7c-.4.7-66.4 163.7-68.8 170L31 249h43.5l4.4-11.8c2.4-6.4 5.2-14.1 6.3-17l1.9-5.2H151.8l6.3 17 6.2 17H208l-1.5-3.7c-.9-2.1-16.5-40.9-34.9-86.3l-33.3-82.5-18.6-.3c-10.2-.1-18.8.1-19 .5zm30.1 84 7 18.3H101l1.3-3.3c.8-1.7 4.9-12.5 9.3-24l7.9-20.7 2.2 5.7c1.2 3.2 5.3 14 9.1 24zM271.2 88.6c-7 1.9-10.5 3.7-13.5 7.4-2.6 3-4.7 8.6-4.7 12.4 0 6.8 6 15.4 12.6 18.2 9 3.8 17.8.1 31-13.1 8.1-8.1 15.4-18.7 15.4-22.3 0-3.6-30.2-5.5-40.8-2.6zM308.7 139.5c-9.8 2.5-16.7 6.5-24.3 14-11.3 11.1-16.4 24.2-16.4 42 0 11.2 2 19.8 6.6 28.6 9.6 18.3 25.5 27.9 46 28 13.1 0 22.3-3 31.7-10.3l3.7-3V249h38V141h-38v9l-5.3-3.5c-2.9-1.9-8-4.4-11.2-5.6-7.8-2.8-22.8-3.4-30.8-1.4zm33.1 33.1c4.7 1.9 9.8 6.8 12.5 11.9 2.8 5.3 3 16.4.3 21.5-5.9 11.2-17.6 16.2-29.8 12.6-20.9-6.1-22.5-36.6-2.4-45.7 5.1-2.3 14.3-2.5 19.4-.3z"/></svg>
