<svg xmlns="http://www.w3.org/2000/svg" version="1.0" fill="white" viewBox="0.15 0.53 449.9 295.19"><path d="M4.1 1.4c-.5.6-1.7 4-2.7 7.4-1.6 5.9-1.7 7.1-.1 22.5 1.1 10 1.7 23.5 1.6 35.2-.1 12.8.5 25.5 1.9 39 1.8 17.8 2 25.5 1.7 70.5-.1 27.8-.6 59.7-1 70.9l-.8 20.4 3.9-.6c2.1-.4 6.5-.9 9.7-1.3 3.1-.4 5.7-1 5.7-1.4 0-.4-2-3.5-4.5-6.9-2.5-3.4-4.5-6.3-4.5-6.6 0-1.2 2.8-.3 6.2 2 3.5 2.3 3.8 2.4 7.2 1 1.9-.8 4.5-1.5 5.7-1.5 1.8 0 1.5.7-2.5 5.1-2.5 2.8-4.6 5.4-4.6 5.8 0 .4 7.9.7 17.5.7 9.6-.1 17.5-.3 17.5-.6s-1.6-2.5-3.5-4.9c-1.9-2.4-3.2-4.7-2.9-5.2 1-1.6 4.3-.9 6.3 1.3 1.9 1.9 2.2 2 3.8.6 2.5-2.1 4.5-2.6 6.7-1.8 1.8.6 1.5 1.1-2.4 5.3-2.3 2.6-4.1 4.9-3.9 5.2 1.6 1.6 38.6 3.1 46.1 1.9l3.7-.7-4.9-5.5c-4.1-4.6-4.7-5.8-3.5-6.5 1.8-1 5.3-.1 7.6 2 1.4 1.2 2.1 1.1 5.2-.7 3.7-2.2 7.7-2 7.7.3 0 .7-1.9 3.2-4.2 5.6l-4.3 4.4 6.5-.8c3.6-.4 13.4-1 21.7-1.4l15.3-.6-3.5-4.4c-1.9-2.4-3.3-4.7-3-5.1.7-1.1 4.6-.1 6.6 1.6 1.3 1.2 1.7 1.1 2.8-1 .7-1.3 2.4-2.9 3.8-3.5 2.4-1.1 6.3-1.5 6.3-.6 0 .3-2 3.2-4.5 6.6-2.5 3.4-4.5 6.5-4.5 6.9 0 .4 4.2 1.3 9.2 1.9 13.4 1.8 27.8 2.5 27.8 1.5 0-.5-1.8-3.2-4-5.9-2.2-2.8-4-5.3-4-5.8 0-1.4 4.8-.7 7.1 1.2 2.3 1.8 2.5 1.8 4.6.1 1.9-1.5 7.3-1.8 7.3-.3 0 .3-2 2.8-4.5 5.5-2.5 2.8-4.3 5.3-4.1 5.6.3.2 4.9-.5 10.2-1.8l9.7-2.2-.6-44.2c-.3-24.2-1.1-63.4-1.8-87.1-1-33.5-1-47.4-.1-63.5 1.5-25.2 1.6-54.2.1-59.3-1.4-5.3-4-6.3-13.1-4.9-5.2.8-12.2.9-24.8.2-9.6-.6-49.2-1.2-88-1.5C59.2 1.2 22.4.8 16.3.6 8.7.4 4.7.6 4.1 1.4zM156 33.9l11.5.6.7 14c.4 7.7 1.4 24.6 2.3 37.5 1.6 24.5 2.1 97.2.8 123.4l-.6 13.6-45.1-.1c-24.8 0-49.2.3-54.2.7l-9.1.7-.6-10.8c-.4-6-.7-23.2-.7-38.4 0-23.8-.5-51.3-2.3-126.3l-.4-15.7 4.6-.4c5.8-.6 77.8.3 93.1 1.2z"/><path d="M64.3 37.8c-.9.6-1 7.2-.3 29.2 2.5 75.1 3 94.6 3 121.6v29.1l33.5.8c18.4.4 40.9.4 50.1 0l16.6-.8-.6-63.6c-.4-55.1-.8-67.1-2.8-89.6l-2.3-26-8.5-.7c-12.1-.9-87.3-.9-88.7 0zm61.3 14.5c14.9 11.1 22.6 23.8 29 47.9 7.7 29 4.5 56.3-9 76.6-4.8 7.3-20.8 26.2-27.3 32.5l-4 3.8-6.1-4.6c-9.3-7-15.7-14.8-21.2-26-11.6-23.5-15.2-59.7-8.6-86C82.2 81.6 87.9 71.1 97 62c6.9-6.9 17.9-14 21.5-14 .7 0 3.9 2 7.1 4.3z"/><path d="M110.6 57.1C92.2 68.7 81.3 90.9 79.4 121c-1.3 20.4 2.4 41.1 10.1 56.8 3.7 7.5 6.3 11 13.5 18.5l8.9 9.2.1-9.3V187l-7.6-9.1c-4.2-4.9-9.2-10.2-11-11.7-3.7-3-4.3-4.7-1.8-5.6 2.1-.8 8.9 4.7 15.3 12.4l4.9 5.8.6-18.1c2.3-63.6 3.6-98.8 4-102.5.2-2.3 0-4.2-.3-4.2-.4 0-2.9 1.4-5.5 3.1zm-10.1 38.6c8.5 9.8 12.2 16.1 11.1 18.9-.9 2.2-.5 2.6-13.7-14.4-7.3-9.4-9-13.2-6-13.2.6 0 4.4 3.9 8.6 8.7zm-4 32.2c6 7.4 13.5 20.9 13.5 24.2 0 3.7-3.4 1.6-6.5-3.9-1.6-2.9-6-9.5-9.7-14.7-3.8-5.1-6.8-9.7-6.8-10.3 0-1 1.5-1.9 3.2-2.1.4-.1 3.2 3 6.3 6.8zM121.6 57.2c-.3.7-.9 13.2-1.5 27.8-.7 14.6-1.4 28.3-1.7 30.5l-.5 4 8.4-8.5c4.6-4.7 11.1-10.9 14.5-13.9 3.8-3.2 6.2-6.1 6.2-7.3 0-3.2-6.7-15-12.4-21.9-6.2-7.6-12.4-12.7-13-10.7zM133.8 111.7l-15.7 15.8-.6 19c-.3 10.4-.8 22.1-1 26-.4 5.8-.3 6.7.8 5 1.9-3 11-12.6 12.9-13.6 1.4-.7 2-.6 2.5.6.4 1.1-1.2 3.5-4.9 7.3-3 3.1-7 7.8-8.7 10.4-3.1 4.6-3.2 5.1-2.9 13.8l.3 9.1 8.5-9.6c26.2-29.6 32.4-48.4 27.5-83.5-2.5-18.4-.6-18.4-18.7-.3zm12.7 15.4c.5 1.5-.4 2.9-4.1 6.2-2.6 2.3-5.3 4.6-6 5-.8.4-4 4.3-7.3 8.5-6.2 8.3-8.8 10.8-9.7 9.9-.8-.8 5.1-13.3 8.2-17.4 2.4-3.1 16.1-14.2 17.6-14.3.4 0 1 .9 1.3 2.1zM249.4 31.8c-1.2.2-3 1.2-4 2.4-1.7 1.8-1.9 3.8-1.9 16.5v14.5l2.8 2.4c3.6 3.1 7.1 3.1 10.2-.1 2.1-2 2.5-3.4 2.5-8 0-5.2-.1-5.5-2.4-5.5s-2.5.4-2.8 5.2c-.3 4.5-.6 5.3-2.3 5.3-1.9 0-2-.7-2-14s.1-14 2-14c1.7 0 2 .8 2.3 4.7.3 4.3.5 4.8 2.8 4.8 2.2 0 2.4-.4 2.4-4.8 0-7.3-3.2-10.4-9.6-9.4zM309 35c0 2-.5 3-1.5 3-.8 0-1.5.7-1.5 1.5s.7 1.5 1.5 1.5c1.3 0 1.5 2.1 1.5 13.3 0 14.4.4 15.7 5.2 15.7 2.1 0 2.8-.5 2.8-2 0-1.3-.7-2-2-2-1.9 0-2-.7-2-12.5s.1-12.5 2-12.5c1.1 0 2-.6 2-1.4 0-.7-.9-1.6-2-1.9-1.4-.3-2-1.4-2-3.1 0-1.9-.5-2.6-2-2.6-1.6 0-2 .7-2 3zM267.4 39.1c-1.7 1.8-1.9 3.7-1.9 14.4 0 14.1 1 16.5 7.1 16.5 4.1 0 6.4-3 6.4-8.2 0-3.1-.4-3.8-1.9-3.8-1.6 0-2 .8-2.3 3.7-.2 3.1-.7 3.9-2.5 4.1-2.2.3-2.3 0-2.3-5.7V54h9v-6.5c0-5.2-.4-6.9-2-8.5-2.6-2.6-7.2-2.6-9.6.1zm7.4 7.1c.3 4.6.2 4.8-2.2 4.8-2.4 0-2.6-.3-2.6-5.1 0-4.7.2-5 2.3-4.7 1.9.3 2.2 1 2.5 5zM286 53.5c0 15.8.1 16.5 2 16.5s2-.7 2-12.3c0-6.7.3-13.2.6-14.5.7-2.6 4.8-3.1 5.8-.6.3.9.6 7.4.6 14.5 0 12.2.1 12.9 2 12.9s2-.7 2-14.3c0-11.3-.3-14.7-1.6-16.5-1.7-2.4-5.3-2.9-7.3-1-1.1 1-1.4 1-1.8 0-.3-.6-1.3-1.2-2.4-1.2-1.8 0-1.9.9-1.9 16.5zM323 53.5c0 15.8.1 16.5 2 16.5 1.8 0 2-.8 2.2-13.8.3-13.1.4-13.7 2.6-14.7 1.2-.5 2.2-1.8 2.2-2.7 0-2.2-1.4-2.3-3.4-.2-1.5 1.4-1.6 1.4-1.6 0 0-.9-.8-1.6-2-1.6-1.9 0-2 .7-2 16.5zM339.4 39.1c-1.7 1.8-1.9 3.7-1.9 14.4s.2 12.6 1.9 14.4c2.4 2.7 7 2.7 9.6.1 2.8-2.8 2.8-10 .1-10-1.6 0-2 .8-2.3 3.7-.2 3.1-.7 3.9-2.5 4.1-2.2.3-2.3 0-2.3-5.7V54h9v-6.5c0-5.2-.4-6.9-2-8.5-2.6-2.6-7.2-2.6-9.6.1zm7.4 7.1c.3 4.5.2 4.8-2.2 4.8-3.3 0-3.8-1-3-6 .6-3.4 1-4.1 2.8-3.8 1.7.2 2.2 1.1 2.4 5zM345 85c0 1.3.7 2 2 2s2-.7 2-2-.7-2-2-2-2 .7-2 2zM301 103.5c0 18.7.1 19.5 2 19.5 1.8 0 2-.8 2.2-14.3l.3-14.2h5l.3 14.2c.2 13.5.4 14.3 2.2 14.3 1.9 0 2-.7 2-15.3 0-10.6-.4-15.7-1.2-16.5-1.7-1.7-4.8-1.5-7 .5-1.7 1.5-1.8 1.4-1.8-3 0-4-.3-4.7-2-4.7-1.9 0-2 .7-2 19.5zM241.2 87.2c.2 1.5 1.1 2.4 2.6 2.6 2.2.3 2.2.5 2.2 16.8V123h5v-16.4c0-15.6.1-16.5 2-17.1 1.1-.3 2-1.5 2-2.6 0-1.7-.7-1.9-7.1-1.9-6.7 0-7 .1-6.7 2.2zM262 92c-1.8 1.8-2 3.3-2 14.5s.2 12.7 2 14.5c2 2 6.5 2.6 8.8 1.2 1.3-.9 3.2-6.4 3.2-9.4 0-1.3-.8-1.8-2.5-1.8-2.3 0-2.5.4-2.5 4.1 0 3.6-.2 4-2.2 3.7-2-.3-2.3-1-2.6-6l-.3-5.7 4.8-.3 4.8-.3-.1-6.3c-.1-4.5-.6-6.8-1.9-8.2-2.3-2.6-6.9-2.6-9.5 0zm7 7c0 4.7-.2 5-2.5 5s-2.5-.4-2.5-4.3c0-4.8.5-5.7 3.2-5.7 1.5 0 1.8.8 1.8 5zM282.4 92.1c-1.7 1.8-1.9 3.7-1.9 14.4s.2 12.6 1.9 14.4c1.1 1.2 3.1 2.1 4.6 2.1 4.4 0 6.2-2.1 6.8-7.8.4-4.8.3-5.2-1.7-5.2-1.7 0-2.1.6-2.1 2.9 0 4.2-.9 6.1-3 6.1s-3-3.6-3-12.5c0-9.6.8-12.7 3.4-12.3 1.6.2 2.2 1.1 2.4 4 .3 3 .7 3.8 2.3 3.8 2.7 0 2.7-7.2-.1-10-2.6-2.6-7.2-2.6-9.6.1zM323 106.5c0 15.8.1 16.5 2 16.5 1.8 0 2-.8 2.2-14.3l.3-14.2h5l.3 14.2c.2 13.5.4 14.3 2.2 14.3 1.9 0 2-.7 2-15.3 0-10.6-.4-15.7-1.2-16.5-1.7-1.7-4.8-1.5-7 .5-1.7 1.5-1.8 1.5-1.8 0 0-1-.8-1.7-2-1.7-1.9 0-2 .7-2 16.5zM345 106.5c0 15.8.1 16.5 2 16.5s2-.7 2-16.5-.1-16.5-2-16.5-2 .7-2 16.5zM359.3 90.8c-2.2 1.4-3.3 6.3-3.3 15 0 11.3 1.3 16 4.6 16.8 1.3.3 3.1.1 3.8-.6 1.2-.9 1.5-.5 1.8 2.7.2 3 .7 3.8 2.3 3.8 1.9 0 2-.8 2.3-18.8.2-16.1 0-18.8-1.3-19.3-.8-.4-2.2-.1-2.9.5-1 .8-1.6.9-2.1.1-.7-1.2-3.5-1.3-5.2-.2zm6.2 15.7c0 11.7-.1 12-2.2 12.3-2.3.3-2.3.2-2.3-12.3s0-12.6 2.3-12.3c2.1.3 2.2.6 2.2 12.3zM378 104.9c0 12.3.3 15.2 1.6 16.5 1.8 1.9 3.8 2 6.5.6 1.3-.7 1.9-.7 1.9 0 0 .5.9 1 2 1 1.9 0 2-.7 2-16.5s-.1-16.5-2-16.5c-1.8 0-2 .8-2.2 14.2l-.3 14.3h-5l-.3-14.3C382 90.8 381.8 90 380 90c-1.9 0-2 .7-2 14.9zM402.1 91.9c-2.4 2.4-3.6 11-2.7 20.5.7 7.9 2.6 10.6 7.6 10.6 3.8 0 6-2.9 6-7.8 0-3.5-.3-4.2-1.9-4.2-1.6 0-2 .8-2.3 3.7-.2 3-.7 3.8-2.3 3.8-1.7 0-2-.8-2.3-5.8l-.3-5.7h9.1v-6.8c0-5.4-.4-7.2-1.8-8.5-2.5-2.3-6.8-2.1-9.1.2zm6.7 7.4c.3 4.5.2 4.7-2.2 4.7-2.4 0-2.6-.4-2.6-4.3 0-4.8.6-5.9 3-5.5 1 .2 1.6 1.7 1.8 5.1zM318 138c0 1.3.7 2 2 2s2-.7 2-2-.7-2-2-2-2 .7-2 2zM371 156.5c0 18.8.1 19.5 2 19.5s2-.7 2-19.5-.1-19.5-2-19.5-2 .7-2 19.5zM424.7 137.7c-.4.3-.7 1.9-.7 3.4 0 2.6-.3 2.8-2.8 2.3-2-.4-3.3 0-4.7 1.6-1.7 1.9-2 3.7-2 13.3 0 6.2.3 12.4.8 13.9.8 3.1 4.9 4.7 7.1 2.9 1-.8 1.6-.9 2.1-.1.3.5 1.5 1 2.6 1 1.8 0 1.9-.9 1.9-19.5 0-18.2-.1-19.5-1.8-19.5-1 0-2.2.3-2.5.7zm-.5 19.3c.4 12-.1 14.5-2.7 14.5-1.8 0-2-.8-2.3-10.9-.3-12.4-.1-13.6 2.7-13.6 1.8 0 2 .8 2.3 10zM244.2 156.7c.3 18 .4 18.8 2.3 18.8 1.8 0 2-.8 2.3-8.8l.3-8.7h5.9v9.1c0 8.8.1 9 2.3 8.7 2.2-.3 2.2-.5 2.5-19.1l.2-18.7h-2.5c-2.4 0-2.5.1-2.5 7.5v7.5h-6v-7.5c0-7.4-.1-7.5-2.5-7.5H244l.2 18.7zM304 141c0 2-.5 3-1.5 3-.8 0-1.5.7-1.5 1.5s.7 1.5 1.5 1.5c1.3 0 1.5 2.1 1.5 12.6 0 6.9.5 13.4 1 14.5 1.5 2.7 7 2.7 7-.1 0-1.1-.7-2-1.5-2-1.3 0-1.5-2.1-1.5-12.5s.2-12.5 1.5-12.5c.8 0 1.5-.7 1.5-1.5s-.7-1.5-1.5-1.5c-1 0-1.5-1-1.5-3 0-2.5-.4-3-2.5-3s-2.5.5-2.5 3zM269.1 145.6c-1.8 2.3-2.1 4.1-2.1 13.6 0 10.4.8 14.3 3.4 16 2.1 1.4 6.6.8 8.6-1.2 1.8-1.8 2-3.3 2-14.5s-.2-12.7-2-14.5c-2.9-2.9-7.4-2.6-9.9.6zm7.3 3c.3.9.6 5.8.6 10.9 0 5.1-.3 10-.6 10.9-.9 2.4-4.1 1.9-4.8-.7-.8-2.9-.8-17.5 0-20.5.7-2.5 3.9-3 4.8-.6zM288.4 144.3c-.2.7-.3 8-.2 16.2.3 14.2.4 15 2.3 15s2-.8 2.3-13.7c.3-13.7.3-13.8 2.7-14.4 1.6-.4 2.5-1.3 2.5-2.5 0-2.2-.4-2.3-3-.9-1.3.7-2.1.7-2.5 0-.9-1.4-3.5-1.2-4.1.3zM318 159.5c0 15.8.1 16.5 2 16.5s2-.7 2-16.5-.1-16.5-2-16.5-2 .7-2 16.5zM331.9 144.9c-2.3 1.8-2.4 2.5-2.4 14.4 0 10.9.2 12.8 1.9 14.6 2.4 2.7 7 2.7 9.6.1 2.8-2.8 2.9-11 .1-11-1.6 0-2 .8-2.3 4.2-.2 3.6-.7 4.4-2.6 4.6l-2.3.3.3-12.3c.3-11.5.4-12.3 2.3-12.3 1.6 0 2.1.8 2.3 3.7.3 3 .7 3.8 2.3 3.8 1.5 0 1.9-.7 1.9-3.8 0-7.4-5.7-10.7-11.1-6.3zM352.1 144.9c-2.5 2.5-3.5 9.3-2.8 19.3.6 9.2 2.2 11.8 7.2 11.8 6 0 7-2.5 7-16.7 0-11.9-.1-12.6-2.4-14.4-3-2.4-6.6-2.4-9 0zm6.4 14.6c0 11.3-.1 12-2 12s-2-.8-2.3-10.9c-.3-12.2 0-13.9 2.5-13.4 1.6.3 1.8 1.7 1.8 12.3zM384.4 145.1c-1.7 1.8-1.9 3.7-1.9 14.4s.2 12.6 1.9 14.4c2.4 2.7 7 2.7 9.6.1 2.8-2.8 2.8-10 .1-10-1.6 0-2 .8-2.3 3.7-.2 3-.8 3.9-2.4 4.1-1.8.3-2.2-.4-2.7-3.5-1.4-8-1.2-8.3 4.3-8.3h5v-6.5c0-5.2-.4-6.9-2-8.5-2.6-2.6-7.2-2.6-9.6.1zm7.4 7.1c.3 4.5.2 4.8-2.2 4.8-3.3 0-3.9-1.2-3.1-6.1.6-3.4 1-4 2.8-3.7 1.9.3 2.2 1.1 2.5 5zM439.4 143.8c-2.5 1.7-3.4 5.6-3.4 15.6 0 5.7.4 11.6 1 13 1 2.8 4.6 4.2 8.4 3.2 4.1-1 6.6-11.6 2.7-11.6-1.4 0-2 1-2.5 4s-1.1 4-2.5 4c-2.3 0-3.1-1.9-3.1-7.6V160h10v-4.9c0-5.3-1.4-10.1-3.3-11.3-1.5-1-5.9-1-7.3 0zm6.2 6.7c.8 4.7 0 6.5-3.1 6.5-2.2 0-2.5-.4-2.5-3.4 0-4.7.9-6.6 3.1-6.6 1.3 0 2 1 2.5 3.5zM241.2 193.2c.2 1.5 1.1 2.4 2.6 2.6 2.2.3 2.2.5 2.2 16.8V229h5v-16.5c0-15.8.1-16.5 2-16.5 1.5 0 2-.7 2-2.5 0-2.4-.2-2.5-7.1-2.5-6.7 0-7 .1-6.7 2.2zM335 194c0 2-.5 3-1.5 3-.8 0-1.5.7-1.5 1.5s.7 1.5 1.5 1.5c1.3 0 1.5 2.1 1.5 12.6 0 6.9.5 13.4 1 14.5 1.5 2.7 7 2.7 7-.1 0-1.1-.7-2-1.5-2-1.3 0-1.5-2.1-1.5-12.5s.2-12.5 1.5-12.5c.8 0 1.5-.7 1.5-1.5s-.7-1.5-1.5-1.5c-1 0-1.5-1-1.5-3 0-2.5-.4-3-2.5-3s-2.5.5-2.5 3zM263.4 196.8c-1.8 1.1-3.4 4.8-3.4 7.6 0 1.9.5 2.6 2 2.6 1.4 0 2.1-.9 2.6-3.5 1.1-5.9 5.4-4.3 5.4 1.9 0 1.7-1 2.8-4.1 4.1-2.2 1-4.4 2.6-5 3.6-1.6 3.2-1.1 11.5 1 14 1.7 2.2 2.2 2.3 5 1.2 1.7-.6 3.1-.7 3.1-.2 0 .5.9.9 2.1.9 2 0 2-.4 1.7-15.1-.3-13.5-.5-15.2-2.2-16.5-2.1-1.5-6.4-1.8-8.2-.6zm6.4 20.9c-.3 6.5-.4 6.8-2.8 6.8-2.3 0-2.5-.4-2.8-4.7-.2-3.7.1-5.1 1.7-6.7 3.5-3.5 4.2-2.6 3.9 4.6zM281.4 197.3c-.2.7-.3 8-.2 16.2.3 14.2.4 15 2.3 15s2-.8 2.5-14c.5-13.5.6-14 2.7-14.3 2.2-.3 2.2-.2 2.5 14 .3 13.9.4 14.3 2.5 14.6 2.2.3 2.2.2 2.5-14 .3-13.1.5-14.3 2.2-14.6 1-.2 2.2.2 2.7 1 .5.7.9 7.3.9 14.5 0 12.6.1 13.3 2 13.3s2-.7 2-14.3c0-11.3-.3-14.7-1.6-16.5-1.8-2.5-5.6-2.9-7.4-.7-1.2 1.4-1.5 1.4-3 0-1.9-1.8-5.1-2-6.7-.4-.8.8-1.3.8-1.7 0-1-1.5-3.6-1.4-4.2.2zM315.6 197.9c-1 1.1-1.9 3.5-1.9 5.3-.2 2.7.2 3.3 1.8 3.3 1.5 0 2.1-.8 2.3-3.3.3-2.8.7-3.3 2.5-3 1.7.2 2.3 1.1 2.5 4 .3 3.6.1 3.9-3.8 5.4-2.2.9-4.5 2.5-5 3.5-1.7 3.2-1.2 11.4.9 14 1.7 2.2 2.2 2.3 5 1.2 1.7-.6 3.1-.7 3.1-.2 0 .5.9.9 2 .9 1.9 0 2-.7 2-14.5 0-13.2-.2-14.7-2-16.5-2.5-2.5-7.2-2.6-9.4-.1zm7.2 19.8c-.3 5.7-.6 6.8-2.2 7.1-2.4.5-3.6-1.4-3.6-6.1 0-2.4.7-4.4 2-5.7 3.4-3.4 4.1-2.5 3.8 4.7zM351 198c-2.8 2.8-2.8 9-.1 9 1.5 0 2.1-.8 2.3-3.3.2-2.4.8-3.3 2.6-3.5 2-.3 2.2.1 2.2 3.8 0 3.7-.3 4.2-3.4 5.5-6.1 2.6-8.1 8-5.5 15.4 1.2 3.5 5 5.1 7.4 3.1 1.1-.9 1.5-1 1.5-.1 0 .7 1 1.1 2.3.9 2.2-.3 2.2-.5 2.2-14.4 0-12.6-.2-14.4-1.9-16.3-2.4-2.7-7-2.7-9.6-.1zm6.6 25.6c-.3.8-1.5 1.4-2.6 1.4-1.8 0-2-.6-2-5.4 0-4.6.4-5.8 2.3-7.1 2.2-1.5 2.2-1.5 2.5 4.1.2 3.1.1 6.3-.2 7zM368 198.2c0 1.3.9 8.1 2 15.3 1.1 7.1 2 13.6 2 14.2 0 .7 1.1 1.3 2.5 1.3 2.9 0 2.8.2 5-16 .9-6.3 1.8-12.7 2.1-14.3.5-2.2.2-2.7-1.4-2.7-2.2 0-2.7 1.7-3.8 14-1 11.4-1.9 11.1-3.2-1.1-.7-6.2-1.5-11.6-1.8-12.1-1.1-1.7-3.4-.7-3.4 1.4zM389 198c-1.8 1.8-2 3.3-2 14.5s.2 12.7 2 14.5c2 2 6.5 2.6 8.8 1.2 1.3-.9 3.2-6.4 3.2-9.4 0-1.3-.8-1.8-2.5-1.8-2.3 0-2.5.4-2.5 4.1 0 3.6-.2 4-2.2 3.7-2-.3-2.3-1-2.6-6l-.3-5.7 4.8-.3 4.8-.3-.1-6.3c-.1-4.5-.6-6.8-1.9-8.2-2.3-2.6-6.9-2.6-9.5 0zm7 7c0 4.7-.2 5-2.5 5s-2.5-.4-2.5-4.3c0-4.8.5-5.7 3.2-5.7 1.5 0 1.8.8 1.8 5zM170.4 250.8c-.5.4-2 2.2-3.3 4l-2.3 3.3-2-2c-2.8-3.1-3.3-2.5-.8.9 1.2 1.6 2.5 3 3 3s2.3-2.1 4-4.6c3-4.5 3.5-6 1.4-4.6zM19.9 254.5c.6 1.1 2 3.1 3.2 4.5l2.1 2.5 2.9-3.4c3.4-4.1 3-5.5-.6-2.1l-2.5 2.4-3.1-3c-2.1-2-2.8-2.3-2-.9zM110 254.8c0 .4 1.8 2.6 4.1 4.7l4.1 4 3.8-4.5c2.2-2.4 3.7-4.6 3.5-4.9-.3-.2-2.2.8-4.4 2.2l-3.9 2.6-3.3-2.5c-3.6-2.6-3.9-2.8-3.9-1.6zM61.3 258.5c1.2 1.9 2.4 3.5 2.8 3.5.3 0 2-1.6 3.9-3.5 3.8-3.9 2.1-5-2.4-1.4-2.2 1.7-2.7 1.8-3.2.6-.3-.9-1.2-1.8-2-2.1-.9-.3-.6.7.9 2.9zM201.4 258.9l3.8 3.9 2.8-3.2c3.3-3.7 3-4.9-.4-1.7-2 1.9-2.6 2-3.3.8-.8-1.4-4.5-3.7-5.9-3.7-.5 0 .9 1.8 3 3.9zM131.5 266.5c-21.7 2.9-33.5 3.5-47.5 2.4-34.8-2.6-56.8-2.1-75.4 1.7l-2.9.6.6 6.4c.8 7.8 2.6 11.6 7.3 14.8 3.5 2.3 3.7 2.4 8.2.9 3.9-1.4 8.9-1.5 35.1-1 16.8.4 35.3 1.1 41.1 1.7 7.2.7 23 .6 49.6-.2 36.4-1.1 40-1 50.7.7 11.5 1.8 17.2 1.6 22.1-.6 1.4-.7 2.7-1.8 3-2.5.7-1.8 2.9-23.5 2.4-23.9-.2-.1-2.5.1-5.3.5-8.1 1.4-31.1 1.1-43-.5-16.4-2.3-33.3-2.6-46-1z"/></svg>
