<svg xmlns="http://www.w3.org/2000/svg" version="1.0" fill="white" viewBox="10 13.19 281.85 119.91"><path d="M182 26.2c-10 12.7-10.8 13.4-16 15-6.3 2-9.4 5.1-11.1 10.8-1.7 5.7-.1 9 4.3 9 6.3 0 12.7-6.1 12.8-12.2.1-4.2 2.4-7.5 13.5-19.3s13.2-15.7 9-16.3c-1.5-.2-4.6 3-12.5 13zM142 25.6c-8.2 3.5-12.3 10-12.4 19.4-.1 13.1 2.7 15.5 7.6 6.5 2.3-4.1 2.7-4.5 2.7-2.5 0 1.4-.6 4.3-1.4 6.5-.8 2.2-1.5 4.1-1.5 4.3 0 1.1 8.6-4.8 10.1-6.9 2.3-3.3 2.4-6.3.4-11.9-2.1-6-1.9-11.2.6-14.4l2-2.6h-2.3c-1.3.1-3.9.8-5.8 1.6zM152 27c-1.5.5 1.9.8 9 .8 9.5-.1 10.6-.2 6-.8-7.1-1-11.9-1-15 0z"/><path d="M121 31.6c-11 3.1-24.1 9.6-27.4 13.5-3.5 4.2-3.4 8.1.4 11.3 1.7 1.4 4.7 3 6.8 3.6 6.1 1.8 21.3 3 28.7 2.2l7-.7-11-.6c-11.5-.6-17.1-2.3-21.2-6.1-3-2.8-2.9-5.9.2-9.6 2.5-3 13.2-9.1 19.7-11.1 3.4-1.1 6.6-3.7 5.7-4.5-.2-.2-4.2.7-8.9 2z"/><path d="M115.3 51c-6.3 2.9-7.6 4.3-4.8 5.4.9.3 3.5-.9 6.1-2.9 2.5-1.9 5-3.5 5.5-3.5s.9-.5.9-1c0-1.4-.8-1.2-7.7 2zM103 63.8c0 1.6 3.5 4.1 8 5.8 9.9 3.5 33.5 2.5 49.6-2.2 7.5-2.2 6.3-2.8-1.7-.9-14.3 3.5-34.9 3-42.9-1-3.3-1.7-13-3-13-1.7zM167.3 64.7c.4.3 1 .3 1.4 0 .3-.4 0-.7-.7-.7s-1 .3-.7.7z"/><path d="M177.2 67c-1.8 2.9-10.1 6.8-20 9.2-11.7 2.9-33 3.2-37.9.5-2.7-1.4-3.3-1.5-3.3-.3 0 2.1 6.3 4.7 14.2 5.8 7.8 1 20.9-.2 29.9-2.8 11.3-3.3 22-10.7 19.3-13.4-.6-.6-1.4-.2-2.2 1zM10 105.5c0 2.2.4 2.5 3.5 2.5H17v25.1l3.3-.3 3.2-.3.3-12.3.3-12.2h3.4c3.1 0 3.5-.3 3.5-2.5V103H10v2.5zM42.5 104c-.3.5-2.8 7.3-5.5 15l-5 14h3.1c2.4 0 3.2-.6 4-3 1-2.8 1.4-3 6.4-3 5.1 0 5.4.1 6 3 .6 2.6 1.1 3 4.2 3 2.4 0 3.4-.4 3.1-1.3-9.3-26.6-10.2-28.7-13-28.7-1.5 0-3 .4-3.3 1zm5.5 15.2c0 1.3-.8 1.8-2.9 1.8-2.9 0-3-.1-2-3.3 2.1-6.4 2.1-6.4 3.5-3.2.7 1.6 1.3 3.8 1.4 4.7zM63 118v15h7c6.8 0 7-.1 7-2.4 0-2.1-.5-2.5-3.7-2.8l-3.8-.3-.3-12.3-.3-12.2H63v15zM84.5 116.7c-2.6 7.6-5 14.4-5.3 15-.3.9.6 1.3 2.7 1.3 2.7 0 3.4-.5 4.2-3 1-2.8 1.4-3 6.4-3 5.1 0 5.4.1 6 3 .6 2.6 1.1 3 4.1 3h3.4l-4.4-12.3C94.9 102 95.4 103 92.2 103c-2.7 0-3 .5-7.7 13.7zm10.4 3c.1.8-1.1 1.3-3 1.3-3.3 0-3.3-.3-.7-7l1-2.5 1.3 3.5c.8 1.9 1.4 4.1 1.4 4.7zM110.7 103.7c-.4.3-.7 7.1-.7 15V133h5.9l.3-8.8.3-8.7 5.5 8.7c4.8 7.6 5.9 8.8 8.3 8.8h2.8l-.3-14.8-.3-14.7-2.7-.3-2.8-.3v9.1c0 5-.4 8.9-.8 8.6-.5-.3-3.2-4.4-6.1-9.1-4.9-7.9-7.3-9.9-9.4-7.8zM138 105.5c0 2.2.4 2.5 3.5 2.5h3.5v25h7v-25h3.5c3.1 0 3.5-.3 3.5-2.5V103h-21v2.5zM169.9 105.7c-.5 1.6-1.2 3.5-1.5 4.3-.3.8-2.3 6.3-4.5 12.2l-3.8 10.8h3.4c2.9 0 3.4-.4 4-3 .6-2.9.9-3 6-3 5 0 5.4.2 6.4 3 .8 2.4 1.6 3 4 3 1.7 0 3.1-.3 3.1-.6 0-.4-2.3-7.1-5.2-15-5-13.9-5.3-14.4-8-14.4-2.2 0-3.1.6-3.9 2.7zm5.4 10.8 1.6 4.5h-6.8l1.6-4.5c.8-2.5 1.6-4.5 1.8-4.5.2 0 1 2 1.8 4.5zM191.7 103.6c-.4.4-.7 7.2-.7 15.1V133h7.5c7.3 0 7.5-.1 7.5-2.5 0-2.2-.4-2.5-4-2.5h-3.9l-.3-12.3-.3-12.2-2.5-.3c-1.4-.2-2.9 0-3.3.4zM212.8 116.4c-2.7 7.4-5.1 14.1-5.4 15-.5 1.3.1 1.6 2.5 1.6 2.7 0 3.4-.5 4.2-3 1-2.8 1.4-3 6.4-3 5.1 0 5.4.1 6 3 .6 2.6 1.1 3 4.1 3 1.9 0 3.4-.3 3.3-.8 0-.4-2.4-7-5.2-14.7-5.1-13.4-5.4-14-8.2-14.3-3-.3-3-.2-7.7 13.2zm9.7 1.3c.6 3.2.5 3.3-2.5 3.3-3.4 0-3.4-.1-.8-7 1.1-2.9 2.1-1.7 3.3 3.7zM238.7 103.7c-.4.3-.7 7.1-.7 15V133h5.9l.3-8.7.3-8.6 5.8 8.6c4.6 7.1 6.2 8.7 8.2 8.7h2.5v-30h-5.9l-.3 9.2-.3 9.3-5.8-9.3c-5.5-8.6-7.9-10.7-10-8.5zM275.5 103.9c-.3.6-2.5 6.5-4.9 13.3-2.4 6.8-4.7 13.1-5.1 14-.6 1.5-.2 1.8 2.4 1.8 2.7 0 3.4-.5 4.2-3 1-2.8 1.4-3 6.4-3 5.1 0 5.4.1 6 3 .6 2.6 1.1 3 4.2 3 2.4 0 3.4-.4 3.1-1.3-.3-.6-2.7-7.4-5.4-14.9-4.6-13.1-5-13.8-7.6-13.8-1.5 0-2.9.4-3.3.9zm5.5 15.3c0 1.3-.8 1.8-2.9 1.8-2.9 0-3-.1-2-3.3 2.1-6.4 2.1-6.4 3.5-3.2.7 1.6 1.3 3.8 1.4 4.7z"/></svg>
