<svg xmlns="http://www.w3.org/2000/svg" version="1.0" fill="white" viewBox="49.98 60.38 198.02 121.63"><path d="M174.3 61.4c-4.6 2.1-6.6 6.7-7.1 16.5-.6 10.3 1 18 4.4 21.2 2.9 2.8 12.4 3.8 16.3 1.7 5-2.6 6.6-7.3 6.6-18.8 0-11.6-1.4-17.2-5-19.6-3.3-2.2-11.4-2.7-15.2-1zm13.9 4.3c3.5 3.6 5 17.3 2.8 25.5-2.2 7.6-11.9 10.6-17.2 5.3-3-3-3.8-6.3-3.8-16.2 0-12.5 3.7-17.8 11.9-17 2.5.3 5.2 1.3 6.3 2.4zM102 61.7c0 1.1 13.9 38.5 14.5 39.1.3.3.7.3 1 .1.4-.5 14.5-38.7 14.5-39.5 0-.2-5.4-.4-12-.4-9.9 0-12 .3-12 1.5 0 1.1 2 1.5 9.8 1.7l9.9.3-4.4 12c-7 19.3-5.9 18.8-10.9 5-2.4-6.6-5.1-13.9-6-16.3-.9-2.3-2.2-4.2-3-4.2-.8 0-1.4.3-1.4.7zM146.2 63.7c-.5 1.6-3.7 10.3-7.1 19.5-6.3 17.2-6.7 18.8-5.2 18.8s2.1-1.3 8.2-18c3.2-8.5 6-14.8 6.3-14 .3.8 2.8 7.6 5.5 15l4.9 13.5-10.5.3c-7.7.2-10.3.6-10 1.5.4 1.4 22.5 2.3 23.8 1 .8-.9-13.2-40.3-14.3-40.3-.3 0-1 1.2-1.6 2.7zM58.4 139.1c-4.4 1.2-6.6 4.1-7.1 9.3-.8 6.3 1.2 9 8.8 11.7 8.6 3.2 10.9 5.2 10.9 9.9 0 5.5-2.7 8.5-8 8.5-3.4 0-4.7-.6-6.6-2.8-1.3-1.6-2.4-3.9-2.4-5.3 0-1.7-.5-2.4-2-2.4-4.4 0-1 9.6 4.4 12.5 4.5 2.5 11.9 1.6 15.3-1.7 3-3.1 4.1-9.5 2.3-13.9-1-2.3-2.8-3.8-6.4-5.5-2.8-1.3-5.6-2.4-6.2-2.4-.6 0-2.3-.9-3.8-2.1-5.3-4.1-2.3-12.9 4.4-12.9 3.6 0 8 3.9 8 7 0 1.4.7 2 2.1 2 1.9 0 2.1-.4 1.5-3.2-.8-3.9-3.1-6.7-7.3-8.4-3.6-1.6-3.6-1.6-7.9-.3zM80 156.5c0 11.4.4 18.3 1.2 20 2.7 6.1 12.6 7.4 18 2.6l3.3-2.9v-18.4c0-16.6-.2-18.3-1.7-18.6-1.7-.3-1.8 1-1.8 17.1 0 19.4-.5 21.1-6.6 22.3-2.4.5-3.7 0-6-1.9l-2.9-2.5-.3-17.6c-.3-14.4-.6-17.6-1.8-17.6-1.2 0-1.4 3.1-1.4 17.5zM136 160v21h11.5c10.8 0 11.5-.1 11.5-2s-.7-2-9.5-2H140v-16h8.5c6.9 0 8.5-.3 8.5-1.5s-1.6-1.5-8.5-1.5H140v-15h9.6c8.6 0 9.5-.2 9.2-1.8-.3-1.5-1.8-1.7-11.6-2l-11.2-.3V160zM225 160v21h11.5c10.8 0 11.5-.1 11.5-2s-.7-2-9.5-2H229v-15.9l8.3-.3c4.6-.2 8.2-.7 8.2-1.3 0-.6-3.6-1.1-8.2-1.3l-8.3-.3V143h9.6c8.6 0 9.5-.2 9.2-1.8-.3-1.5-1.8-1.7-11.6-2l-11.2-.3V160zM109 141.5c0 1.2 1.7 1.5 9.1 1.5h9.1l-4 7.2c-2.1 4-6.7 12.6-10.1 19l-6.3 11.8h12.6c10.4 0 12.6-.3 12.6-1.5 0-1.1-2-1.5-9.8-1.7l-9.9-.3 9.3-17.5c5.2-9.6 9.4-18.1 9.4-18.8 0-.9-2.9-1.2-11-1.2-9.1 0-11 .3-11 1.5zM163 141.5c0 1.2 1.4 1.5 6.5 1.5h6.5v19c0 16.2.2 19 1.5 19s1.5-2.8 1.5-19v-19h6.5c5.1 0 6.5-.3 6.5-1.5 0-1.3-2.3-1.5-14.5-1.5s-14.5.2-14.5 1.5zM193 141.5c0 1.2 1.4 1.5 6.5 1.5h6.5v19c0 16.2.2 19 1.5 19s1.5-2.8 1.5-19v-19h6.5c5.1 0 6.5-.3 6.5-1.5 0-1.3-2.3-1.5-14.5-1.5s-14.5.2-14.5 1.5z"/></svg>
